# xmcd
# 
# Track frame offsets:
#     182
#     17607
#     30877
#     47952
#     59842
#     76517
#     93882
#     107790
#     121297
#     135982
#     151757
#     166895
# 
# Disc length: 2476
# 
# Revision: 1
# Processed by: cddbd v1.5.2PL0 Copyright (c) Steve Scherf et al.
# Submitted via: fre:ac v1.0.31
# 
DISCID=8309aa0c
DTITLE=Truck Stop - Potz Blitz
DYEAR=0
DGENRE=
TTITLE0=Du und ich (im 3/4 Takt)
TTITLE1=Sünde hin - Sünde her
TTITLE2=Vater und Sohn
TTITLE3=Wochenend im Schlafsack
TTITLE4=Kalle Schmidt
TTITLE5=Der Baum
TTITLE6=Lüneburger Heide
TTITLE7=Mia miass´n jo was moch´n
TTITLE8=Großstadtluft
TTITLE9=Ab heut wird alles anders
TTITLE10=Jodlidiledi
TTITLE11=Peng - Peng
EXTD=
EXTT0=
EXTT1=
EXTT2=
EXTT3=
EXTT4=
EXTT5=
EXTT6=
EXTT7=
EXTT8=
EXTT9=
EXTT10=
EXTT11=
PLAYORDER=
